<?xml version="1.0" encoding="UTF-8"?>
<svg width="200px" height="200px" viewBox="0 0 200 200" version="1.1" xmlns="http://www.w3.org/2000/svg" xmlns:xlink="http://www.w3.org/1999/xlink">
    <!-- Generator: Sketch 52.1 (67048) - http://www.bohemiancoding.com/sketch -->
    <title>分组@1x</title>
    <desc>Created with Sketch.</desc>
    <g id="Page-1" stroke="none" stroke-width="1" fill="none" fill-rule="evenodd">
        <g id="iPhone-8" transform="translate(-88.000000, -245.000000)">
            <g id="分组" transform="translate(88.000000, 245.000000)">
                <rect id="矩形" fill="#FFFFFF" fill-rule="nonzero" x="0" y="0" width="200" height="200" rx="8"></rect>
                <path d="M44.794,79.348 L46.648,79.348 L46.648,80.878 L53.452,80.878 L53.452,82.624 L46.648,82.624 L46.648,84.388 L52.354,84.388 L52.354,90.616 L39.934,90.616 L39.934,84.388 L44.794,84.388 L44.794,79.348 Z M50.482,88.888 L50.482,86.134 L41.806,86.134 L41.806,88.888 L50.482,88.888 Z M39.898,91.138 L41.464,91.894 C40.816,93.424 40.078,94.756 39.214,95.872 L37.666,94.738 C38.53,93.73 39.268,92.542 39.898,91.138 Z M44.344,91.732 C44.704,92.884 45.01,94.108 45.298,95.44 L43.408,95.89 C43.192,94.45 42.904,93.19 42.58,92.092 L44.344,91.732 Z M48.07,91.48 C48.574,92.686 49.024,94 49.42,95.404 L47.548,95.854 C47.224,94.342 46.81,92.992 46.306,91.84 L48.07,91.48 Z M51.652,91.048 C52.768,92.524 53.632,93.802 54.244,94.882 L52.66,95.962 C52.03,94.774 51.184,93.46 50.122,92.02 L51.652,91.048 Z M60.358,81.688 L66.028,81.688 L66.028,79.348 L67.972,79.348 L67.972,81.688 L73.552,81.688 L73.552,83.47 L67.972,83.47 L67.972,85.918 L75.028,85.918 L75.028,87.718 L67.972,87.718 L67.972,93.478 L71.644,93.478 L71.644,88.942 L73.426,88.942 L73.426,95.908 L71.644,95.908 L71.644,95.206 L62.374,95.206 L62.374,95.908 L60.592,95.908 L60.592,88.942 L62.374,88.942 L62.374,93.478 L66.028,93.478 L66.028,87.718 L58.99,87.718 L58.99,85.918 L66.028,85.918 L66.028,83.47 L60.358,83.47 L60.358,81.688 Z M79.918,79.996 L96.064,79.996 L96.064,81.832 L88.468,81.832 L88.468,84.028 C90.664,85.072 92.878,86.278 95.128,87.61 L93.994,89.302 C91.78,87.898 89.944,86.8 88.468,86.044 L88.468,95.872 L86.578,95.872 L86.578,81.832 L79.918,81.832 L79.918,79.996 Z M100.99,81.688 L108.496,81.688 C108.172,81.022 107.794,80.392 107.344,79.78 L109.126,79.114 C109.594,79.834 110.044,80.698 110.44,81.688 L117.082,81.688 L117.082,83.506 L107.758,83.506 C107.722,84.19 107.686,85.072 107.614,86.17 L115.03,86.17 C114.958,90.166 114.778,92.668 114.49,93.64 C114.076,95.044 113.158,95.746 111.754,95.782 C111.16,95.782 110.476,95.746 109.684,95.692 L109.126,93.982 C110.08,94.036 110.89,94.072 111.556,94.072 C112.258,94.036 112.708,93.514 112.924,92.506 C113.032,91.948 113.086,90.436 113.122,87.952 L107.398,87.952 C107.146,89.32 106.714,90.562 106.084,91.696 C105.202,93.262 103.96,94.702 102.358,95.998 L100.99,94.666 C102.898,93.082 104.158,91.606 104.77,90.256 C105.364,88.906 105.706,87.376 105.796,85.684 C105.832,84.784 105.868,84.064 105.886,83.506 L100.99,83.506 L100.99,81.688 Z M137.794,81.076 L137.794,84.892 L135.994,84.892 L135.994,82.786 L129.73,82.786 L129.73,84.964 L127.948,84.964 L127.948,81.076 L131.818,81.076 C131.62,80.446 131.386,79.87 131.134,79.348 L133.06,79.024 C133.276,79.636 133.492,80.32 133.708,81.076 L137.794,81.076 Z M131.08,83.614 L132.934,83.794 C132.718,84.694 132.484,85.522 132.268,86.278 L138.28,86.278 L138.28,88.06 L136.3,88.06 C136.012,89.68 135.454,91.066 134.626,92.2 C136.174,93.028 137.416,93.784 138.388,94.468 L137.11,95.944 C136.12,95.224 134.878,94.414 133.402,93.514 C132.106,94.558 130.162,95.386 127.57,96.016 L126.814,94.234 C128.83,93.784 130.414,93.19 131.584,92.452 C130.63,91.912 129.604,91.336 128.524,90.76 C128.956,89.896 129.37,88.996 129.73,88.06 L127.606,88.06 L127.606,86.278 L130.36,86.278 C130.63,85.414 130.864,84.514 131.08,83.614 Z M134.5,88.06 L131.656,88.06 C131.35,88.852 131.044,89.554 130.72,90.148 C131.512,90.544 132.268,90.922 132.952,91.3 C133.69,90.436 134.212,89.356 134.5,88.06 Z M123.88,95.71 L122.35,95.71 L121.936,93.892 C122.386,93.964 122.818,94 123.232,94 C123.592,94 123.79,93.784 123.79,93.388 L123.79,89.77 C123.178,89.986 122.584,90.202 121.99,90.4 L121.504,88.51 C122.278,88.33 123.034,88.132 123.79,87.88 L123.79,84.28 L121.882,84.28 L121.882,82.462 L123.79,82.462 L123.79,79.276 L125.698,79.276 L125.698,82.462 L127.192,82.462 L127.192,84.28 L125.698,84.28 L125.698,87.106 C126.166,86.89 126.652,86.638 127.12,86.386 L127.12,88.294 C126.652,88.528 126.166,88.762 125.698,88.978 L125.698,93.874 C125.698,95.098 125.086,95.71 123.88,95.71 Z M156.634,81.58 L154.132,81.58 L153.7,86.35 L156.418,86.35 L156.634,81.58 Z M151.864,86.35 L152.296,81.58 L150.226,81.58 L150.226,79.816 L158.56,79.816 L157.948,93.586 L159.37,93.586 L159.37,95.404 L149.218,95.404 L149.218,94.054 C148.138,94.63 146.914,95.098 145.546,95.494 L144.772,93.892 C145.222,93.694 145.456,93.424 145.456,93.064 L145.456,89.806 L143.188,89.806 L143.188,88.078 L145.456,88.078 L145.456,86.386 L144.592,86.386 L144.592,85.108 C144.412,85.432 144.232,85.738 144.052,86.026 L142.522,85.072 C143.638,83.254 144.412,81.31 144.862,79.258 L146.662,79.636 C146.536,80.14 146.41,80.608 146.266,81.076 L149.254,81.076 L149.254,82.822 L145.654,82.822 C145.384,83.506 145.096,84.136 144.808,84.712 L148.948,84.712 L148.948,86.386 L147.292,86.386 L147.292,88.078 L149.56,88.078 L149.56,89.806 L147.292,89.806 L147.292,93.28 C147.94,92.992 148.588,92.65 149.218,92.236 L149.488,93.586 L151.234,93.586 L151.702,88.168 L149.848,88.168 L149.848,86.35 L151.864,86.35 Z M153.052,93.586 L156.076,93.586 L156.328,88.168 L153.538,88.168 L153.052,93.586 Z M44.567,106.222 L46.511,106.222 L46.511,111.568 L53.171,111.568 L53.171,113.386 L46.511,113.386 L46.511,120.424 L54.503,120.424 L54.503,122.26 L38.321,122.26 L38.321,120.424 L44.567,120.424 L44.567,106.222 Z M61.103,113.53 C60.599,114.142 60.077,114.718 59.519,115.276 L58.889,113.26 C60.707,111.262 62.057,108.904 62.939,106.186 L64.721,107.014 C64.289,108.346 63.695,109.642 62.975,110.866 L62.975,122.908 L61.103,122.908 L61.103,113.53 Z M64.613,108.328 L68.033,108.328 L68.519,106.186 L70.355,106.366 C70.211,107.05 70.049,107.698 69.905,108.328 L75.017,108.328 L75.017,110.128 L69.437,110.128 C69.293,110.668 69.149,111.19 69.005,111.676 L75.755,111.676 L75.755,113.458 L68.411,113.458 C68.177,114.088 67.943,114.682 67.727,115.222 L74.801,115.222 L74.801,116.842 C74.099,117.958 73.019,119.074 71.579,120.19 C72.299,120.568 72.983,120.964 73.649,121.396 L72.605,123.016 C70.409,121.558 68.141,120.406 65.837,119.578 L66.827,118.102 C67.907,118.498 68.951,118.912 69.941,119.38 C71.129,118.588 72.065,117.778 72.785,116.95 L65.279,116.95 C65.747,115.834 66.179,114.664 66.593,113.458 L63.821,113.458 L63.821,111.676 L67.151,111.676 C67.295,111.154 67.439,110.632 67.583,110.128 L64.613,110.128 L64.613,108.328 Z M82.067,113.584 C81.581,114.16 81.077,114.736 80.537,115.294 L79.907,113.278 C81.761,111.244 83.129,108.85 84.029,106.096 L85.775,106.924 C85.307,108.328 84.695,109.66 83.939,110.92 L83.939,122.872 L82.067,122.872 L82.067,113.584 Z M94.397,113.386 C95.243,115.474 95.981,117.724 96.593,120.1 L94.937,120.838 C94.289,118.246 93.551,115.942 92.741,113.944 L94.397,113.386 Z M87.971,110.02 C87.431,111.334 86.819,112.54 86.135,113.62 L84.515,112.612 C85.847,110.614 86.783,108.49 87.323,106.24 L89.087,106.618 C88.943,107.158 88.781,107.698 88.619,108.22 L96.125,108.22 L96.125,109.444 C95.855,110.524 95.513,111.586 95.099,112.648 L93.299,112.126 C93.659,111.514 93.947,110.812 94.199,110.02 L87.971,110.02 Z M89.969,122.746 L87.683,122.746 L87.269,120.982 C87.989,121.054 88.691,121.108 89.339,121.108 C89.771,121.108 89.987,120.874 89.987,120.424 L89.987,111.262 L91.805,111.262 L91.805,120.874 C91.805,122.116 91.193,122.746 89.969,122.746 Z M87.035,113.584 L88.727,114.052 C88.097,116.518 87.287,118.678 86.315,120.532 L84.551,119.902 C85.487,118.246 86.315,116.14 87.035,113.584 Z M107.891,109.138 L107.891,121.756 L106.091,121.756 L106.091,120.856 L103.427,120.856 L103.427,122.278 L101.627,122.278 L101.627,109.138 L103.355,109.138 C103.679,108.184 103.913,107.194 104.057,106.168 L105.947,106.42 C105.749,107.392 105.479,108.31 105.155,109.138 L107.891,109.138 Z M103.427,119.128 L106.091,119.128 L106.091,115.726 L103.427,115.726 L103.427,119.128 Z M103.427,114.052 L106.091,114.052 L106.091,110.902 L103.427,110.902 L103.427,114.052 Z M111.167,113.512 C112.319,114.97 113.201,116.248 113.831,117.364 L112.319,118.408 C111.653,117.22 110.753,115.906 109.637,114.466 L111.167,113.512 Z M117.161,109.138 C117.161,115.438 117.071,119.326 116.891,120.802 C116.711,122.062 115.847,122.692 114.299,122.692 C113.939,122.692 113.291,122.656 112.355,122.584 L111.905,120.874 C112.697,120.928 113.399,120.964 113.993,120.964 C114.641,120.964 115.019,120.604 115.127,119.902 C115.235,119.038 115.289,116.068 115.325,110.974 L110.969,110.974 C110.483,112.054 109.907,113.026 109.241,113.89 L108.107,112.396 C109.295,110.704 110.087,108.616 110.519,106.15 L112.373,106.384 C112.193,107.356 111.959,108.274 111.689,109.138 L117.161,109.138 Z M122.573,114.412 L130.421,114.412 C130.637,113.53 130.763,112.594 130.799,111.604 L130.799,106.33 L132.689,106.33 L132.689,111.604 C132.653,112.612 132.545,113.548 132.365,114.412 L138.287,114.412 L138.287,116.248 L131.843,116.248 C131.465,117.256 130.979,118.156 130.367,118.948 C128.981,120.658 126.731,121.972 123.599,122.89 L122.573,121.306 C125.741,120.334 127.883,119.11 128.981,117.67 C129.305,117.22 129.575,116.752 129.791,116.248 L122.573,116.248 L122.573,114.412 Z M133.553,117.328 C135.479,118.714 137.099,120.1 138.413,121.486 L137.009,122.89 C135.893,121.54 134.309,120.1 132.257,118.57 L133.553,117.328 Z M124.229,109.948 C125.705,110.578 127.073,111.334 128.333,112.216 L127.271,113.854 C125.939,112.828 124.589,112.018 123.221,111.442 L124.229,109.948 Z M126.209,107.086 C127.469,107.662 128.639,108.364 129.701,109.192 L128.675,110.758 C127.541,109.822 126.389,109.102 125.201,108.562 L126.209,107.086 Z M152.933,115.654 C152.771,115.42 152.609,115.204 152.447,115.024 C151.439,115.798 150.125,116.5 148.469,117.13 L147.551,115.654 C149.243,115.15 150.539,114.628 151.403,114.052 L148.451,114.052 L148.451,110.974 C148.343,111.046 148.235,111.1 148.127,111.172 L147.029,109.822 C146.939,110.002 146.849,110.2 146.777,110.38 L146.777,122.854 L144.887,122.854 L144.887,113.548 C144.455,114.124 144.005,114.7 143.537,115.276 L142.907,113.26 C144.455,111.226 145.607,108.832 146.363,106.06 L148.109,106.888 C147.821,107.878 147.461,108.832 147.065,109.75 C148.685,108.85 150.089,107.626 151.295,106.042 L153.203,106.474 C153.005,106.744 152.807,107.014 152.591,107.284 L156.803,107.284 L156.803,108.454 C156.479,108.922 156.137,109.336 155.795,109.696 L158.801,109.696 L158.801,114.052 L153.653,114.052 C154.283,114.736 154.769,115.438 155.129,116.158 C156.209,115.636 157.109,115.024 157.865,114.304 L159.035,115.654 C158.243,116.302 157.343,116.878 156.317,117.382 C157.073,118.624 158.225,119.74 159.773,120.73 L158.603,122.188 C157.505,121.27 156.623,120.316 155.939,119.308 L155.939,119.398 C155.939,120.694 155.705,121.612 155.273,122.116 C154.895,122.53 154.211,122.8 153.221,122.926 C152.897,122.962 152.555,122.98 152.195,122.98 L151.619,121.27 C152.159,121.27 152.627,121.252 152.987,121.234 C153.347,121.198 153.635,121.072 153.869,120.838 C154.067,120.586 154.175,120.118 154.175,119.398 L154.175,119.236 C152.699,120.514 150.791,121.576 148.469,122.404 L147.533,120.802 C150.269,119.956 152.393,118.876 153.887,117.58 C153.815,117.328 153.725,117.112 153.635,116.896 C152.339,118.048 150.611,118.984 148.487,119.704 L147.587,118.156 C149.873,117.508 151.655,116.662 152.933,115.654 Z M154.481,112.54 L156.983,112.54 L156.983,111.208 L154.481,111.208 L154.481,112.54 Z M150.233,109.696 L153.509,109.696 C153.869,109.39 154.229,109.048 154.607,108.688 L151.349,108.688 C150.971,109.048 150.593,109.39 150.233,109.696 Z M152.717,111.208 L150.269,111.208 L150.269,112.54 L152.717,112.54 L152.717,111.208 Z" id="点击下方按钮-上传你的头像" fill="#DF4646"></path>
            </g>
        </g>
    </g>
</svg>